# xmcd
# Track frame offsets:
# 150
# 15190
# 29625
# 48042
# 64060
# 81575
# 101452
# 123722
# 140675
# 157962
# 175215
# 190459
#
# Disc length: 2750 seconds
# Revision: 0
# Processed by: cddbd v1.4PL0 Copyright (c) Steve Scherf et al.
# Submitted via: VisiTrax 2.9.5.181 - For more info visit www.synapsa.com
#
DISCID=a00abc0c
DTITLE=Barbara Dex - Tender Touch
DYEAR=1996
DGENRE=
TTITLE0=Closer to you
TTITLE1=What do I know
TTITLE2=Desperado
TTITLE3=Free again
TTITLE4=Maybe I'm just a fool
TTITLE5=My angel is here
TTITLE6=Leaving this town (with Paul Michiels)
TTITLE7=Someone in my life
TTITLE8=Come on back to me
TTITLE9=Who are you
TTITLE10=Sweet summernights
TTITLE11=I don't wanna know
EXTD=
EXTT0=
EXTT1=
EXTT2=
EXTT3=
EXTT4=
EXTT5=
EXTT6=
EXTT7=
EXTT8=
EXTT9=
EXTT10=
EXTT11=
PLAYORDER=
